<svg width="512" height="512" viewBox="0 0 512 512" xmlns="http://www.w3.org/2000/svg">
  <defs>
    <linearGradient id="bg" x1="0%" y1="0%" x2="100%" y2="100%">
      <stop offset="0%" style="stop-color:#e63946"/>
      <stop offset="100%" style="stop-color:#d62839"/>
    </linearGradient>
  </defs>
  <!-- Background -->
  <rect width="512" height="512" rx="80" fill="url(#bg)"/>
  <!-- Car icon -->
  <g transform="translate(80, 140)">
    <!-- Car body -->
    <path d="M320 120H32c-17.7 0-32 14.3-32 32v80c0 17.7 14.3 32 32 32h288c17.7 0 32-14.3 32-32v-80c0-17.7-14.3-32-32-32z" fill="white" opacity="0.9"/>
    <!-- Car top -->
    <path d="M280 120L240 60H112L72 120" fill="white" opacity="0.9"/>
    <!-- Windows -->
    <path d="M120 80h112l24 36H96l24-36z" fill="#1a1a2e"/>
    <!-- Front wheel -->
    <circle cx="80" cy="264" r="40" fill="#1a1a2e"/>
    <circle cx="80" cy="264" r="24" fill="white" opacity="0.3"/>
    <!-- Back wheel -->
    <circle cx="272" cy="264" r="40" fill="#1a1a2e"/>
    <circle cx="272" cy="264" r="24" fill="white" opacity="0.3"/>
  </g>
  <!-- FIPE text -->
  <text x="256" y="430" text-anchor="middle" font-family="Arial, sans-serif" font-size="60" font-weight="bold" fill="white">FIPE</text>
</svg>
